<svg width="20" height="23" viewBox="0 0 20 23" fill="none" xmlns="http://www.w3.org/2000/svg">
<path d="M18.8889 22.2222H1.11111C0.816426 22.2222 0.533811 22.1052 0.325437 21.8968C0.117063 21.6884 0 21.4058 0 21.1111V6.66667H20V21.1111C20 21.4058 19.8829 21.6884 19.6746 21.8968C19.4662 22.1052 19.1836 22.2222 18.8889 22.2222ZM20 4.44444H0V1.11111C0 0.816426 0.117063 0.533811 0.325437 0.325437C0.533811 0.117063 0.816426 0 1.11111 0H18.8889C19.1836 0 19.4662 0.117063 19.6746 0.325437C19.8829 0.533811 20 0.816426 20 1.11111V4.44444ZM4.44444 10V14.4444H8.88889V10H4.44444ZM4.44444 16.6667V18.8889H15.5556V16.6667H4.44444ZM11.1111 11.1111V13.3333H15.5556V11.1111H11.1111Z" fill="#FB2956"/>
</svg>
